<svg width="32" height="32" viewBox="0 0 32 32" fill="none" xmlns="http://www.w3.org/2000/svg">
<path fill-rule="evenodd" clip-rule="evenodd" d="M31.4081 17.8649C28.62 18.1673 25.9082 19.3903 23.7659 21.5326C21.7204 23.5781 20.513 26.1429 20.1448 28.7975C19.7838 26.1617 18.5929 23.6219 16.5709 21.5999C14.5277 19.5567 11.9558 18.3621 9.29033 18.0149L9.23863 17.9632C11.9165 17.606 14.5066 16.3955 16.5689 14.3332C18.6591 12.2431 19.8742 9.61082 20.2129 6.89448L20.2827 6.82476C20.6105 9.53036 21.8098 12.1461 23.8818 14.2181C25.9785 16.3148 28.6319 17.5179 31.3718 17.8286L31.4081 17.8649Z" fill="url(#paint0_linear_1904_41193)"/>
<path fill-rule="evenodd" clip-rule="evenodd" d="M7.82865 6.8429C7.03163 7.63993 6.0358 8.11736 5 8.27539C6.03644 8.43573 7.03368 8.91554 7.83277 9.71463C8.62924 10.5111 9.10851 11.5044 9.27041 12.5372C9.42948 11.5038 9.90657 10.5106 10.7019 9.71525C11.4435 8.97365 12.3572 8.50874 13.3151 8.32036C12.3339 8.13792 11.3953 7.66683 10.6358 6.90726C9.87702 6.14851 9.40613 5.21111 9.22327 4.23113C9.03471 5.18849 8.56989 6.10166 7.82865 6.8429Z" fill="url(#paint1_linear_1904_41193)"/>
<path fill-rule="evenodd" clip-rule="evenodd" d="M8.47136 24.823C8.05683 25.2375 7.53877 25.4856 7 25.5674C7.53864 25.6506 8.05693 25.8998 8.47221 26.3151C8.8868 26.7297 9.13594 27.247 9.21952 27.7847C9.30171 27.2468 9.54968 26.7298 9.96354 26.316C10.3494 25.9301 10.825 25.6884 11.3235 25.5909C10.8135 25.4962 10.3255 25.2515 9.93069 24.8566C9.53574 24.4617 9.29094 23.9736 9.19637 23.4634C9.09879 23.9617 8.85715 24.4372 8.47136 24.823Z" fill="url(#paint2_linear_1904_41193)"/>
<defs>
<linearGradient id="paint0_linear_1904_41193" x1="14.7584" y1="12.3491" x2="25.8411" y2="23.4318" gradientUnits="userSpaceOnUse">
<stop stop-color="#01BCF5"/>
<stop offset="1" stop-color="#038DFE"/>
</linearGradient>
<linearGradient id="paint1_linear_1904_41193" x1="7.06752" y1="6.20787" x2="11.3336" y2="10.474" gradientUnits="userSpaceOnUse">
<stop stop-color="#01BCF5"/>
<stop offset="1" stop-color="#038DFE"/>
</linearGradient>
<linearGradient id="paint2_linear_1904_41193" x1="8.07509" y1="24.4923" x2="10.2935" y2="26.7107" gradientUnits="userSpaceOnUse">
<stop stop-color="#01BCF5"/>
<stop offset="1" stop-color="#038DFE"/>
</linearGradient>
</defs>
</svg>
